<svg width="53" height="53" viewBox="0 0 53 53" fill="none" xmlns="http://www.w3.org/2000/svg">
<path d="M26.5 50.4678C27.4274 50.4464 28.3174 50.0978 29.0125 49.4835C29.7076 48.8692 30.1631 48.0289 30.2983 47.1111H22.5544C22.6935 48.0538 23.1703 48.9139 23.8961 49.5313C24.6219 50.1488 25.5472 50.4816 26.5 50.4678V50.4678Z" fill="black"/>
<path d="M47.8619 40.9719C46.4422 39.7063 45.1993 38.2554 44.1666 36.6583C43.0392 34.4537 42.3635 32.0462 42.1791 29.5769V22.3042C42.1731 21.4208 42.0944 20.5393 41.9436 19.6689C40.7848 19.4373 39.6711 19.0196 38.6458 18.4322C39.0366 19.6907 39.2352 21.0011 39.2347 22.3189V29.5917C39.4151 32.6039 40.2437 35.5416 41.6638 38.2042C42.6803 39.8148 43.8863 41.2976 45.2561 42.6208H7.55246C8.92223 41.2976 10.1283 39.8148 11.1447 38.2042C12.5648 35.5416 13.3934 32.6039 13.5738 29.5917V22.3042C13.5661 20.6003 13.8945 18.9117 14.5403 17.335C15.186 15.7583 16.1365 14.3244 17.3372 13.1155C18.5379 11.9066 19.9652 10.9465 21.5375 10.29C23.1098 9.63348 24.7961 9.29357 26.5 9.28972C28.9936 9.29171 31.4312 10.0291 33.5077 11.4097C33.2788 10.5691 33.1503 9.70423 33.125 8.83333C33.125 8.52416 33.125 8.21499 33.125 7.90583C31.5877 7.14964 29.9363 6.65222 28.2372 6.43361V4.57861C28.2372 4.3205 28.1863 4.06493 28.0876 3.82647C27.9888 3.58802 27.844 3.37135 27.6615 3.18885C27.479 3.00634 27.2623 2.86157 27.0239 2.7628C26.7854 2.66403 26.5299 2.61319 26.2718 2.61319C26.0137 2.61319 25.7581 2.66403 25.5196 2.7628C25.2812 2.86157 25.0645 3.00634 24.882 3.18885C24.6995 3.37135 24.5547 3.58802 24.456 3.82647C24.3572 4.06493 24.3063 4.3205 24.3063 4.57861V6.50722C20.5017 7.04392 17.0197 8.93895 14.5031 11.8425C11.9866 14.746 10.6054 18.4619 10.6147 22.3042V29.5769C10.4303 32.0462 9.75457 34.4537 8.62718 36.6583C7.61264 38.2518 6.38969 39.7025 4.99079 40.9719C4.83375 41.1099 4.70789 41.2797 4.62158 41.4701C4.53527 41.6605 4.4905 41.8671 4.49023 42.0761V44.0783C4.49023 44.4688 4.64534 44.8433 4.92144 45.1193C5.19753 45.3954 5.572 45.5506 5.96246 45.5506H46.8902C47.2807 45.5506 47.6552 45.3954 47.9313 45.1193C48.2073 44.8433 48.3625 44.4688 48.3625 44.0783V42.0761C48.3622 41.8671 48.3174 41.6605 48.2311 41.4701C48.1448 41.2797 48.0189 41.1099 47.8619 40.9719V40.9719Z" fill="black"/>
<path d="M44.1668 16.1945C48.2322 16.1945 51.5279 12.8988 51.5279 8.83334C51.5279 4.76791 48.2322 1.47223 44.1668 1.47223C40.1013 1.47223 36.8057 4.76791 36.8057 8.83334C36.8057 12.8988 40.1013 16.1945 44.1668 16.1945Z" fill="#FF9494"/>
</svg>
